<?xml version="1.0" encoding="UTF-8"?>
<!DOCTYPE svg PUBLIC "-//W3C//DTD SVG 1.1//EN" "http://www.w3.org/Graphics/SVG/1.1/DTD/svg11.dtd">
<svg xmlns="http://www.w3.org/2000/svg" version="1.1" width="1232px" height="1232px" style="shape-rendering:geometricPrecision; text-rendering:geometricPrecision; image-rendering:optimizeQuality; fill-rule:evenodd; clip-rule:evenodd" xmlns:xlink="http://www.w3.org/1999/xlink">
<g><path style="opacity:1" fill="#000000" d="M -0.5,-0.5 C 410.167,-0.5 820.833,-0.5 1231.5,-0.5C 1231.5,410.167 1231.5,820.833 1231.5,1231.5C 820.833,1231.5 410.167,1231.5 -0.5,1231.5C -0.5,820.833 -0.5,410.167 -0.5,-0.5 Z"/></g>
<g><path style="opacity:1" fill="#fefefe" d="M 673.5,173.5 C 683.26,172.735 689.76,177.068 693,186.5C 693.74,192.158 694.406,197.825 695,203.5C 700.376,194.983 703.376,185.65 704,175.5C 705.746,165.409 703.412,156.409 697,148.5C 693.253,144.246 689.086,140.579 684.5,137.5C 685.723,136.386 687.056,136.219 688.5,137C 702.925,143.288 716.092,151.454 728,161.5C 733.15,166.633 736.316,172.799 737.5,180C 737.135,183.763 735.968,187.263 734,190.5C 727.516,196.074 720.849,201.407 714,206.5C 710.464,214.819 713.297,219.152 722.5,219.5C 734.729,217.214 744.063,210.714 750.5,200C 750,199.5 749.5,199 749,198.5C 744.682,201.433 741.516,200.433 739.5,195.5C 740.714,191.957 742.714,188.957 745.5,186.5C 745.833,186.833 746.167,187.167 746.5,187.5C 744.333,189.83 742.666,192.497 741.5,195.5C 741.709,196.086 742.043,196.586 742.5,197C 745.468,197.17 748.301,197.336 751,197.5C 759.453,184.473 764.12,170.139 765,154.5C 763.904,135.266 766.57,116.6 773,98.5C 777.667,88.5 782.333,78.5 787,68.5C 787.943,65.176 788.776,61.8426 789.5,58.5C 790.5,58.5 791.5,58.5 792.5,58.5C 792.965,62.3994 793.632,66.2328 794.5,70C 793.476,71.3671 793.976,72.2005 796,72.5C 799.768,70.4027 803.268,67.9027 806.5,65C 812.914,60.7484 819.914,58.7484 827.5,59C 833.864,60.7017 837.364,64.8683 838,71.5C 839.663,83.1284 840.996,94.7951 842,106.5C 846.395,118.352 850.395,130.352 854,142.5C 860.613,154.929 869.946,157.595 882,150.5C 882.191,143.06 884.525,136.394 889,130.5C 890.315,124.796 888.982,119.796 885,115.5C 881.689,102.144 886.856,96.311 900.5,98C 904.129,100.083 906.129,103.25 906.5,107.5C 905.905,110.952 904.905,114.286 903.5,117.5C 903.919,118.672 904.585,119.672 905.5,120.5C 918.556,122.943 923.723,117.609 921,104.5C 919.667,101.833 918.333,99.1667 917,96.5C 910,87.8333 903,79.1667 896,70.5C 886.128,56.629 885.128,42.2957 893,27.5C 902.122,18.1838 912.289,17.0171 923.5,24C 928.833,30.6667 934.833,36.6667 941.5,42C 949.373,46.1413 957.373,46.4746 965.5,43C 968.431,37.2361 969.264,31.0694 968,24.5C 966.883,20.5118 966.216,16.5118 966,12.5C 984.458,33.0488 983.624,52.8822 963.5,72C 949.278,79.2147 937.112,76.7147 927,64.5C 922.5,57.5 918,50.5 913.5,43.5C 907.665,40.7616 904.331,42.7616 903.5,49.5C 903.941,54.7151 905.774,59.3817 909,63.5C 917.331,72.8236 927.498,79.3236 939.5,83C 941.041,84.5793 942.208,86.4127 943,88.5C 944.157,98.1921 943.324,107.692 940.5,117C 940.85,118.257 941.517,118.591 942.5,118C 944.667,115.833 946.833,113.667 949,111.5C 948.735,123.148 949.235,134.815 950.5,146.5C 950.18,172.641 943.014,196.641 929,218.5C 917.981,229.755 904.647,234.422 889,232.5C 888.5,232.833 888,233.167 887.5,233.5C 888.253,235.753 889.586,237.587 891.5,239C 890.975,239.692 890.308,240.192 889.5,240.5C 867.005,231.504 851.839,215.504 844,192.5C 840.355,181.253 837.022,169.919 834,158.5C 828.657,144.623 820.49,132.79 809.5,123C 793.736,114.395 782.736,118.395 776.5,135C 780.5,140.667 784.5,146.333 788.5,152C 793.615,154.067 798.781,155.901 804,157.5C 802.825,160.075 801.992,162.909 801.5,166C 803.798,176.302 809.298,184.469 818,190.5C 823.578,201.847 820.078,209.014 807.5,212C 780.451,208.707 769.951,220.207 776,246.5C 780.188,257.711 787.688,265.878 798.5,271C 803.734,271.977 808.734,271.31 813.5,269C 823.777,260.06 835.111,252.727 847.5,247C 856.51,243.838 865.51,243.838 874.5,247C 875.711,247.893 875.711,248.726 874.5,249.5C 868.379,252.06 862.379,254.894 856.5,258C 850.297,263.485 850.131,269.319 856,275.5C 863.704,282.873 871.704,289.873 880,296.5C 888.137,307.839 887.803,319.173 879,330.5C 863.402,345.925 844.569,353.092 822.5,352C 820.33,353.586 817.996,354.92 815.5,356C 809.44,358.02 803.44,360.02 797.5,362C 800.909,363.74 804.576,364.74 808.5,365C 813.544,364.905 818.544,365.072 823.5,365.5C 819.62,375.373 823.12,380.707 834,381.5C 838.486,380.436 842.986,379.436 847.5,378.5C 848.554,378.68 849.554,379.013 850.5,379.5C 851.701,381.909 853.367,383.909 855.5,385.5C 864.588,380.555 870.088,372.888 872,362.5C 872.333,356.5 872.667,350.5 873,344.5C 880.96,368.625 875.126,388.791 855.5,405C 842.372,413.979 828.372,421.146 813.5,426.5C 816.427,436.633 818.26,446.967 819,457.5C 822.604,488.881 818.604,519.214 807,548.5C 800.328,565.509 792.328,581.843 783,597.5C 777.708,604.46 772.042,611.127 766,617.5C 763.412,621.674 761.079,626.007 759,630.5C 758.405,631.899 758.572,633.232 759.5,634.5C 762.168,635.738 764.834,635.738 767.5,634.5C 769.271,635.035 769.604,635.869 768.5,637C 757.375,645.453 745.708,653.119 733.5,660C 711.918,666.961 690.918,675.294 670.5,685C 667.159,687.472 667.159,689.472 670.5,691C 675.681,691.56 680.848,691.393 686,690.5C 687.5,690.667 689,690.833 690.5,691C 691.833,691.667 691.833,692.333 690.5,693C 680.448,696.527 670.781,700.86 661.5,706C 658.5,706.5 655.5,707 652.5,707.5C 646.524,706.468 640.524,706.302 634.5,707C 628.16,711.56 621.16,713.227 613.5,712C 605.422,706.933 597.089,702.266 588.5,698C 573.886,695.15 559.219,692.483 544.5,690C 491.27,676.736 449.77,647.236 420,601.5C 414.789,598.557 410.122,594.89 406,590.5C 402.364,582.619 399.031,574.619 396,566.5C 393.351,562.238 389.851,561.071 385.5,563C 383.101,565.69 381.768,568.857 381.5,572.5C 384.502,587.503 390.502,601.169 399.5,613.5C 399.167,613.833 398.833,614.167 398.5,614.5C 381.867,598.334 370.367,579.001 364,556.5C 361.075,542.973 358.242,529.473 355.5,516C 355.472,510.266 355.972,504.433 357,498.5C 360.781,491.514 365.948,490.181 372.5,494.5C 374.877,440.665 386.544,388.999 407.5,339.5C 407.833,340.833 408.167,342.167 408.5,343.5C 407.589,350.852 407.256,358.018 407.5,365C 408.071,366.205 408.738,367.372 409.5,368.5C 421.013,344.8 435.513,323.133 453,303.5C 468.331,289.813 484.331,276.813 501,264.5C 501.167,264.167 501.333,263.833 501.5,263.5C 500.333,263.167 499.167,262.833 498,262.5C 490.196,265.303 488.196,263.303 492,256.5C 497.169,252.746 503.002,250.913 509.5,251C 512.667,249.167 515.167,246.667 517,243.5C 517.014,241.529 516.681,239.529 516,237.5C 512.946,234.446 509.946,231.446 507,228.5C 506.333,226.5 506.333,224.5 507,222.5C 508.833,220.667 510.667,218.833 512.5,217C 517.926,213.871 523.093,210.371 528,206.5C 528.667,207.833 528.667,209.167 528,210.5C 524.46,214.363 522.293,218.863 521.5,224C 522.8,228.332 524.633,232.499 527,236.5C 529.609,230.612 534.109,227.279 540.5,226.5C 548.067,228.3 555.401,230.8 562.5,234C 564.728,234.82 566.728,234.487 568.5,233C 561.514,224.791 560.681,215.958 566,206.5C 570.915,202.375 576.248,199.708 582,198.5C 586.784,200.95 590.617,204.45 593.5,209C 592.048,210.517 590.548,210.684 589,209.5C 582.955,213.922 579.788,219.922 579.5,227.5C 587.371,225.258 594.704,221.758 601.5,217C 607.487,212.531 610.32,206.697 610,199.5C 602.862,193.931 594.862,190.264 586,188.5C 583.384,184.52 583.717,180.52 587,176.5C 594.955,167.522 604.955,162.522 617,161.5C 627.638,162.559 638.138,164.392 648.5,167C 651.167,167.667 653.833,167.667 656.5,167C 650.362,159.951 648.195,151.784 650,142.5C 653.358,124.616 663.858,113.449 681.5,109C 695.206,108.307 708.873,108.807 722.5,110.5C 740.867,110.762 746.533,102.428 739.5,85.5C 739.833,85.1667 740.167,84.8333 740.5,84.5C 746.781,91.8203 751.281,100.154 754,109.5C 755.812,125.021 748.979,131.854 733.5,130C 725.938,126.108 717.938,124.442 709.5,125C 707.188,128.325 707.021,131.825 709,135.5C 711.5,138 714,140.5 716.5,143C 726.549,149.018 736.215,155.518 745.5,162.5C 745.167,162.833 744.833,163.167 744.5,163.5C 735.172,156.834 725.505,150.667 715.5,145C 710.116,141.298 706.783,136.298 705.5,130C 705.842,124.066 709.009,121.566 715,122.5C 721.771,123.312 728.271,125.145 734.5,128C 750.511,128.622 756.011,121.122 751,105.5C 749.503,101.835 747.503,98.5017 745,95.5C 745.81,103.676 742.31,108.842 734.5,111C 730.569,111.996 726.569,112.496 722.5,112.5C 708.878,110.762 695.211,110.262 681.5,111C 662.857,116.397 652.857,128.897 651.5,148.5C 651.381,155.656 653.881,161.656 659,166.5C 663.848,162.143 667.181,156.81 669,150.5C 670,149.167 671,149.167 672,150.5C 673.432,158.054 673.932,165.721 673.5,173.5 Z"/></g>
<g><path style="opacity:1" fill="#fefefe" d="M 885.5,15.5 C 888.85,15.335 892.183,15.5017 895.5,16C 897.286,16.1962 898.619,17.0295 899.5,18.5C 895.94,20.28 892.273,22.1133 888.5,24C 883.718,26.7259 881.384,30.8926 881.5,36.5C 882.362,41.3074 883.028,46.1408 883.5,51C 883.881,58.2882 880.381,62.1215 873,62.5C 865.905,62.0424 860.738,58.7091 857.5,52.5C 858.04,51.2519 858.707,50.0852 859.5,49C 863.099,47.6906 866.599,46.1906 870,44.5C 870.333,39.1667 870.667,33.8333 871,28.5C 873.524,21.4705 878.357,17.1372 885.5,15.5 Z"/></g>
<g><path style="opacity:1" fill="#000000" d="M 885.5,17.5 C 888.85,17.335 892.183,17.5017 895.5,18C 889.325,20.3141 884.491,24.1474 881,29.5C 880.094,31.7438 879.594,34.0772 879.5,36.5C 881.115,43.0941 881.615,49.7608 881,56.5C 874.048,61.6284 867.381,60.9618 861,54.5C 860.333,53.1667 860.333,51.8333 861,50.5C 864.962,49.4302 868.629,47.7635 872,45.5C 872.17,38.7701 872.837,32.1034 874,25.5C 877.074,21.7154 880.907,19.0487 885.5,17.5 Z"/></g>
<g><path style="opacity:1" fill="#000000" d="M 904.5,21.5 C 909.705,21.1336 914.705,21.9669 919.5,24C 926.548,30.0514 933.215,36.3847 939.5,43C 946.319,47.0697 953.652,48.4031 961.5,47C 965.667,45.5 968.5,42.6667 970,38.5C 970.333,33.5 970.667,28.5 971,23.5C 977.638,32.3978 978.971,42.0644 975,52.5C 971.203,62.6292 964.369,69.7959 954.5,74C 942.358,74.6783 932.858,69.8449 926,59.5C 922.828,55.1591 920.161,50.4924 918,45.5C 910.611,37.0952 905.111,38.2619 901.5,49C 902.597,57.8559 906.597,65.1892 913.5,71C 921.791,77.0632 930.624,82.2299 940,86.5C 942.37,98.1966 941.537,109.697 937.5,121C 937.613,122.28 938.28,123.113 939.5,123.5C 941.833,121.833 943.833,119.833 945.5,117.5C 952.381,151.505 947.215,183.505 930,213.5C 919.986,226.254 906.819,232.087 890.5,231C 884.474,226.876 882.807,228.042 885.5,234.5C 885,234.833 884.5,235.167 884,235.5C 881.889,234.528 879.722,233.695 877.5,233C 865.525,225.021 856.359,214.521 850,201.5C 843.565,184.759 837.898,167.759 833,150.5C 827.333,138.336 819.166,128.169 808.5,120C 787.313,112.274 775.647,119.774 773.5,142.5C 773.912,154.585 775.079,166.585 777,178.5C 779.158,186.321 782.992,193.155 788.5,199C 784.138,200.372 780.638,202.872 778,206.5C 774.525,212.757 772.359,219.423 771.5,226.5C 772.418,245.15 777.585,262.817 787,279.5C 793.346,286.588 800.846,292.088 809.5,296C 820.177,298.553 828.677,295.387 835,286.5C 836.271,283.567 837.938,280.901 840,278.5C 856.737,309.898 849.904,334.398 819.5,352C 809.962,355.679 800.296,358.846 790.5,361.5C 792.416,363.317 794.749,364.484 797.5,365C 804.745,366.699 812.078,367.865 819.5,368.5C 818.496,373.643 820.163,377.81 824.5,381C 832.063,384.35 839.563,384.183 847,380.5C 849.372,383.491 852.372,385.824 856,387.5C 860.474,386.038 864.14,383.371 867,379.5C 870.099,374.875 872.432,369.875 874,364.5C 874.377,374.371 871.711,383.371 866,391.5C 855.066,403.751 841.899,412.917 826.5,419C 821.839,420.499 817.172,421.999 812.5,423.5C 812.167,424.167 811.833,424.833 811.5,425.5C 817.653,453.883 819.153,482.549 816,511.5C 808.469,542.446 796.469,571.446 780,598.5C 771.515,607.315 764.182,616.982 758,627.5C 757.399,629.137 756.899,630.803 756.5,632.5C 757.657,635.066 758.824,637.4 760,639.5C 746.21,652.314 730.043,660.814 711.5,665C 698.167,670.667 684.833,676.333 671.5,682C 667.553,683.589 665.72,686.422 666,690.5C 666.903,691.701 668.069,692.535 669.5,693C 672.833,693.333 676.167,693.667 679.5,694C 665.815,704.3 650.482,707.967 633.5,705C 626.567,710.475 618.9,711.808 610.5,709C 604.01,703.843 597.01,699.509 589.5,696C 611.248,695.274 632.581,691.941 653.5,686C 654.973,685.29 655.64,684.124 655.5,682.5C 649.503,681 644.169,678.167 639.5,674C 626.24,660.679 616.074,645.179 609,627.5C 601.439,602.484 592.106,578.151 581,554.5C 572.691,542.19 562.691,532.19 551,524.5C 535.89,564.835 524.223,606.168 516,648.5C 514.909,658.137 514.409,667.804 514.5,677.5C 506.819,675.16 499.486,671.994 492.5,668C 491.056,666.874 490.39,665.374 490.5,663.5C 497.57,612.552 510.57,563.219 529.5,515.5C 529.167,515.167 528.833,514.833 528.5,514.5C 524.503,522.509 521.003,530.843 518,539.5C 504.531,580.375 494.364,622.042 487.5,664.5C 441.598,635.924 411.265,595.591 396.5,543.5C 396.818,542.353 397.484,541.519 398.5,541C 426.528,532.881 454.528,524.547 482.5,516C 497.068,512.227 511.735,511.561 526.5,514C 520.377,511.128 513.877,509.962 507,510.5C 498.365,510.627 489.865,511.793 481.5,514C 451.664,523.613 421.664,532.613 391.5,541C 396.179,552.025 400.679,563.191 405,574.5C 408.118,581.239 411.618,587.739 415.5,594C 415,594.167 414.5,594.333 414,594.5C 410.679,592.512 408.012,589.846 406,586.5C 403.634,578.398 400.3,570.731 396,563.5C 391.333,558.167 386.667,558.167 382,563.5C 380.455,566.302 379.622,569.302 379.5,572.5C 380.862,580.839 383.028,588.839 386,596.5C 372.042,576.304 363.375,553.97 360,529.5C 358.908,521.453 358.075,513.62 357.5,506C 358.881,493.77 364.548,491.27 374.5,498.5C 376.062,448.355 386.062,400.022 404.5,353.5C 405.828,360.773 406.495,368.107 406.5,375.5C 407.675,375.719 408.675,375.386 409.5,374.5C 423.797,340.382 445.13,311.549 473.5,288C 490.614,274.888 508.281,262.554 526.5,251C 533.03,248.047 539.696,245.713 546.5,244C 544.765,246.637 543.432,249.47 542.5,252.5C 544.091,254.984 546.425,255.984 549.5,255.5C 583.223,248.601 617.223,246.101 651.5,248C 659.438,246.047 666.438,242.38 672.5,237C 695.259,217.394 706.426,192.56 706,162.5C 704.369,155.541 701.036,149.541 696,144.5C 695.333,143.833 695.333,143.167 696,142.5C 710.725,149.238 723.059,158.905 733,171.5C 736.495,177.7 736.161,183.7 732,189.5C 725.516,195.074 718.849,200.407 712,205.5C 708.249,211.504 709.416,216.337 715.5,220C 731.691,221.987 743.858,215.821 752,201.5C 760.194,187.585 765.194,172.585 767,156.5C 765.849,135.846 768.849,115.846 776,96.5C 781.033,85.7719 786.033,75.1052 791,64.5C 790.51,69.2869 792.177,72.9535 796,75.5C 802.61,70.1118 809.777,65.6118 817.5,62C 827.297,58.3645 833.464,61.5312 836,71.5C 838.792,90.0589 840.126,108.726 840,127.5C 840.793,141.583 846.293,153.416 856.5,163C 866.598,168.841 875.431,167.341 883,158.5C 886.077,152.42 889.244,146.42 892.5,140.5C 897.794,148.134 904.794,153.468 913.5,156.5C 920.562,155.278 925.395,151.278 928,144.5C 931.538,123.782 926.872,105.115 914,88.5C 907.522,81.5342 901.522,74.2008 896,66.5C 889.099,55.6742 887.933,44.3408 892.5,32.5C 895.351,27.436 899.351,23.7693 904.5,21.5 Z"/></g>
<g><path style="opacity:1" fill="#fefefe" d="M 811.5,22.5 C 821.864,22.6799 830.53,26.6799 837.5,34.5C 840.701,37.8642 843.701,41.3642 846.5,45C 846.167,45.5 845.833,46 845.5,46.5C 838.104,42.0347 830.104,39.368 821.5,38.5C 814.738,39.2142 809.072,42.0475 804.5,47C 803.207,47.49 801.873,47.6567 800.5,47.5C 800.103,39.4727 802.103,32.1394 806.5,25.5C 808.145,24.3037 809.811,23.3037 811.5,22.5 Z"/></g>
<g><path style="opacity:1" fill="#000000" d="M 811.5,24.5 C 816.795,24.4586 821.795,25.6253 826.5,28C 831.341,32.0099 836.008,36.1766 840.5,40.5C 840.167,40.8333 839.833,41.1667 839.5,41.5C 826.306,33.7906 814.139,35.1239 803,45.5C 802.368,36.965 805.201,29.965 811.5,24.5 Z"/></g>
<g><path style="opacity:1" fill="#fcfcfc" d="M 825.5,46.5 C 829.95,46.1416 833.45,47.8083 836,51.5C 842.038,64.0446 840.205,65.8779 830.5,57C 826.727,55.6464 823.06,54.1464 819.5,52.5C 821.215,50.1182 823.215,48.1182 825.5,46.5 Z"/></g>
<g><path style="opacity:1" fill="#020202" d="M 825.5,48.5 C 830.342,47.8416 833.509,49.8416 835,54.5C 835.749,55.635 835.583,56.635 834.5,57.5C 830.889,54.8619 826.889,53.0285 822.5,52C 823.71,50.9609 824.71,49.7942 825.5,48.5 Z"/></g>
<g><path style="opacity:1" fill="#fefefe" d="M 980.5,49.5 C 981.376,49.3691 982.043,49.7025 982.5,50.5C 981.696,51.9411 981.029,53.4411 980.5,55C 984.171,63.5161 986.338,72.3495 987,81.5C 984.818,91.0078 979.318,93.6744 970.5,89.5C 967.196,90.7756 966.029,93.109 967,96.5C 969.808,100.145 971.975,104.145 973.5,108.5C 972.972,111.861 971.139,114.194 968,115.5C 966.795,123.947 964.295,131.947 960.5,139.5C 959.675,140.386 958.675,140.719 957.5,140.5C 957.666,131.161 957.5,121.827 957,112.5C 954.453,105.07 951.62,97.7366 948.5,90.5C 949.155,87.3412 950.822,84.8412 953.5,83C 958.167,81.6667 962.833,80.3333 967.5,79C 970.562,77.9392 973.062,76.1059 975,73.5C 977.484,65.3799 979.317,57.3799 980.5,49.5 Z"/></g>
<g><path style="opacity:1" fill="#000000" d="M 979.5,62.5 C 980.931,62.8807 981.764,63.8807 982,65.5C 983.861,70.3909 984.861,75.3909 985,80.5C 983.182,88.4429 978.349,90.7763 970.5,87.5C 964.492,89.6073 962.992,93.6073 966,99.5C 968.466,102.128 970.299,105.128 971.5,108.5C 970.143,110.801 968.31,112.801 966,114.5C 965.068,121.028 963.401,127.362 961,133.5C 960.308,132.975 959.808,132.308 959.5,131.5C 961.292,118.295 958.792,105.962 952,94.5C 950.817,90.7261 951.651,87.5594 954.5,85C 961.269,83.729 967.602,81.3957 973.5,78C 978.147,73.8978 980.147,68.7311 979.5,62.5 Z"/></g>
<g><path style="opacity:1" fill="#fefefe" d="M 620.5,63.5 C 626.898,63.2427 633.231,63.7427 639.5,65C 647.288,67.2072 654.954,69.7072 662.5,72.5C 663.772,72.4302 664.938,72.0968 666,71.5C 665.812,64.0339 669.312,61.5339 676.5,64C 680.984,65.7429 685.317,67.7429 689.5,70C 694.167,73.3333 698.833,76.6667 703.5,80C 706.95,80.1751 710.283,80.3418 713.5,80.5C 710.266,85.5859 705.6,88.2526 699.5,88.5C 693.769,87.1396 688.103,85.4729 682.5,83.5C 679.076,86.4077 675.242,88.7411 671,90.5C 666.769,87.2979 662.269,84.4646 657.5,82C 650.309,79.6983 642.975,78.6983 635.5,79C 633.131,79.5359 631.131,80.7026 629.5,82.5C 627.705,86.3837 626.205,90.3837 625,94.5C 621.521,101.532 617.187,102.199 612,96.5C 606.554,88.771 605.221,80.4376 608,71.5C 611.586,67.7136 615.753,65.0469 620.5,63.5 Z"/></g>
<g><path style="opacity:1" fill="#000000" d="M 620.5,65.5 C 626.898,65.2427 633.231,65.7427 639.5,67C 647.85,69.2961 656.017,72.1294 664,75.5C 665.395,75.2196 666.562,74.5529 667.5,73.5C 668.115,70.9607 668.782,68.4607 669.5,66C 671.5,65.3333 673.5,65.3333 675.5,66C 684.862,69.3774 693.195,74.3774 700.5,81C 702.715,82.0438 705.048,82.7105 707.5,83C 705.048,84.9589 702.214,85.7923 699,85.5C 693.324,84.8855 687.824,83.5522 682.5,81.5C 681.5,81.6667 680.5,81.8333 679.5,82C 677.268,84.7349 674.601,86.9016 671.5,88.5C 661.007,80.0416 649.007,76.2083 635.5,77C 631.934,77.6998 629.1,79.5332 627,82.5C 625.729,86.9789 624.062,91.3122 622,95.5C 619.842,98.9499 617.342,99.2833 614.5,96.5C 611.192,91.0511 608.858,85.2178 607.5,79C 609.336,71.9987 613.669,67.4987 620.5,65.5 Z"/></g>
<g><path style="opacity:1" fill="#000000" d="M 891.5,99.5 C 895.79,98.9874 899.623,99.9874 903,102.5C 903.601,104.137 904.101,105.803 904.5,107.5C 898.883,121.065 903.549,125.898 918.5,122C 921.754,119.658 923.588,116.491 924,112.5C 927.221,121.568 928.221,130.901 927,140.5C 925.418,148.384 920.752,153.05 913,154.5C 904.446,150.445 897.613,144.445 892.5,136.5C 890.165,139.166 888.331,142.166 887,145.5C 886.107,146.711 885.274,146.711 884.5,145.5C 887.02,138.957 889.687,132.457 892.5,126C 890.115,120.306 887.781,114.639 885.5,109C 885.773,104.593 887.773,101.427 891.5,99.5 Z"/></g>
<g><path style="opacity:1" fill="#000000" d="M 841.5,113.5 C 845.928,123.835 849.762,134.501 853,145.5C 860.774,157.044 870.607,159.377 882.5,152.5C 879.696,162.094 873.03,165.928 862.5,164C 853.329,158.154 847.162,149.988 844,139.5C 842.18,130.925 841.346,122.259 841.5,113.5 Z"/></g>
<g><path style="opacity:1" fill="#fefefe" d="M 619.5,123.5 C 622.5,123.167 623.833,124.5 623.5,127.5C 617.184,128.985 613.351,132.985 612,139.5C 609.587,144.429 610.087,148.929 613.5,153C 611.365,153.635 609.365,153.301 607.5,152C 602.651,142.181 604.651,133.848 613.5,127C 615.432,125.541 617.432,124.375 619.5,123.5 Z"/></g>
<g><path style="opacity:1" fill="#000000" d="M 612.5,130.5 C 614.657,131.053 614.49,132.053 612,133.5C 610.198,138.375 608.865,143.375 608,148.5C 606.443,145.706 606.11,142.706 607,139.5C 608.343,136.138 610.176,133.138 612.5,130.5 Z"/></g>
<g><path style="opacity:1" fill="#fefefe" d="M 522.5,132.5 C 538.537,130.208 552.037,134.874 563,146.5C 568.336,154.193 569.669,162.527 567,171.5C 565,176.167 563,180.833 561,185.5C 556.696,190.475 552.362,195.475 548,200.5C 547.007,204.442 546.34,208.442 546,212.5C 545.586,212.957 545.086,213.291 544.5,213.5C 539.501,206.323 534.667,198.99 530,191.5C 526.749,187.578 522.916,184.412 518.5,182C 514.458,178.123 513.625,173.623 516,168.5C 519.129,163.074 522.629,157.907 526.5,153C 525.132,150.815 523.132,149.649 520.5,149.5C 507.176,152.162 495.509,157.995 485.5,167C 484.517,167.591 483.85,167.257 483.5,166C 491.515,153.318 501.848,142.985 514.5,135C 517.31,134.218 519.977,133.384 522.5,132.5 Z"/></g>
<g><path style="opacity:1" fill="#fefefe" d="M 667.5,132.5 C 669.989,132.298 672.323,132.798 674.5,134C 677,136.5 679.5,139 682,141.5C 682.332,146.854 681.999,152.187 681,157.5C 680,158.833 679,158.833 678,157.5C 676.245,151.895 673.911,146.562 671,141.5C 669.736,139.393 667.903,138.393 665.5,138.5C 665.253,136.142 665.919,134.142 667.5,132.5 Z"/></g>
<g><path style="opacity:1" fill="#fefefe" d="M 995.5,132.5 C 1005.68,130.843 1010.84,135.176 1011,145.5C 1014.45,150.055 1017.11,155.055 1019,160.5C 1021.74,175.359 1015.74,184.359 1001,187.5C 991.908,185.887 990.408,181.72 996.5,175C 999.871,173.932 1003.2,172.765 1006.5,171.5C 1009.28,168.374 1009.78,165.041 1008,161.5C 1005.62,158.727 1002.78,156.561 999.5,155C 996.132,151.383 995.798,147.55 998.5,143.5C 993.567,143.115 989.234,144.782 985.5,148.5C 980.893,158.119 983.893,163.952 994.5,166C 995.554,167.388 995.72,168.888 995,170.5C 990.748,173.572 986.248,176.072 981.5,178C 986.807,189.127 983.641,196.294 972,199.5C 967.245,199.213 963.745,197.046 961.5,193C 962.821,184.801 964.321,176.635 966,168.5C 965.624,162.42 965.958,156.42 967,150.5C 968.793,147.705 970.96,145.205 973.5,143C 980.772,139.196 988.105,135.696 995.5,132.5 Z"/></g>
<g><path style="opacity:1" fill="#000000" d="M 522.5,134.5 C 538.262,132.141 551.429,136.808 562,148.5C 566.079,155.124 567.079,162.124 565,169.5C 557.96,156.413 549.293,155.08 539,165.5C 536.188,170.744 535.855,176.077 538,181.5C 538.633,176.388 541.133,172.555 545.5,170C 551.941,169.701 553.774,172.535 551,178.5C 545.639,181.194 541.639,185.194 539,190.5C 538.667,193.833 538.333,197.167 538,200.5C 535.247,195.992 532.247,191.659 529,187.5C 525.333,184.5 521.667,181.5 518,178.5C 516.285,173.923 516.951,169.589 520,165.5C 522.911,162.01 525.578,158.344 528,154.5C 528.353,149.398 525.853,147.065 520.5,147.5C 510.884,148.761 502.05,152.094 494,157.5C 500.062,145.702 509.562,138.035 522.5,134.5 Z"/></g>
<g><path style="opacity:1" fill="#030303" d="M 667.5,134.5 C 678.271,136.749 682.104,143.083 679,153.5C 676.635,146.072 672.802,139.739 667.5,134.5 Z"/></g>
<g><path style="opacity:1" fill="#000000" d="M 997.5,134.5 C 1005.35,133.852 1009.19,137.518 1009,145.5C 1010.5,149.165 1012.5,152.498 1015,155.5C 1021.81,171.128 1017.14,181.128 1001,185.5C 994.294,184.537 993.127,181.704 997.5,177C 1000.95,175.97 1004.28,174.637 1007.5,173C 1012.06,168.973 1012.56,164.473 1009,159.5C 1005.32,156.813 1001.98,153.813 999,150.5C 999.007,147.137 1000.17,144.137 1002.5,141.5C 991.227,139.635 983.893,144.135 980.5,155C 980.818,159.323 982.818,162.657 986.5,165C 989.251,165.516 991.584,166.683 993.5,168.5C 990.681,171.91 987.014,173.743 982.5,174C 981.667,174.833 980.833,175.667 980,176.5C 980.316,180.126 980.816,183.793 981.5,187.5C 979.845,195.958 974.845,198.791 966.5,196C 965.056,194.874 964.39,193.374 964.5,191.5C 964.899,184.029 966.066,176.696 968,169.5C 968.333,163.5 968.667,157.5 969,151.5C 969.667,150.167 970.333,148.833 971,147.5C 979.182,141.658 988.016,137.325 997.5,134.5 Z"/></g>
<g><path style="opacity:1" fill="#000000" d="M 776.5,138.5 C 777.458,138.953 778.292,139.619 779,140.5C 782.25,151.744 789.75,157.91 801.5,159C 799.058,163.725 798.891,168.559 801,173.5C 803,176.833 805,180.167 807,183.5C 812.83,187.159 816.997,192.159 819.5,198.5C 818.614,203.472 815.948,206.972 811.5,209C 802.156,209.965 792.823,210.965 783.5,212C 780.705,213.793 778.205,215.96 776,218.5C 776.707,208.074 782.207,202.074 792.5,200.5C 783.3,191.093 778.133,179.76 777,166.5C 776.757,158.31 776.257,150.143 775.5,142C 775.648,140.744 775.982,139.577 776.5,138.5 Z"/></g>
<g><path style="opacity:1" fill="#fefefe" d="M 757.5,144.5 C 758.5,144.5 759.5,144.5 760.5,144.5C 760.739,147.915 760.072,151.081 758.5,154C 760.193,158.378 760.693,162.878 760,167.5C 758,170.167 756,172.833 754,175.5C 753.466,180.077 752.3,184.411 750.5,188.5C 747.827,186.209 746.494,183.209 746.5,179.5C 745.585,166.251 749.252,154.584 757.5,144.5 Z"/></g>
<g><path style="opacity:1" fill="#020202" d="M 757.5,147.5 C 758.03,149.716 757.363,151.882 755.5,154C 758.004,158.192 758.837,162.692 758,167.5C 756.807,169.605 755.14,171.272 753,172.5C 751.749,176.082 750.749,179.749 750,183.5C 747.4,170.754 749.9,158.754 757.5,147.5 Z"/></g>
<g><path style="opacity:1" fill="#000000" d="M 669.5,154.5 C 674.861,172.215 669.194,185.382 652.5,194C 646.443,195.162 640.777,194.162 635.5,191C 632.734,187.478 629.734,184.145 626.5,181C 623.186,179.835 621.186,181.002 620.5,184.5C 622.952,191.402 626.452,197.736 631,203.5C 634.791,211.123 633.291,217.623 626.5,223C 615.845,227.167 604.845,230.167 593.5,232C 586.805,232.967 580.138,233.633 573.5,234C 583.786,229.191 593.786,223.857 603.5,218C 610.061,213.051 612.895,206.551 612,198.5C 610.833,197.333 609.667,196.167 608.5,195C 601.737,191.024 594.571,188.19 587,186.5C 586.673,180.323 589.173,175.489 594.5,172C 601.165,167.5 608.498,164.666 616.5,163.5C 626.98,164.544 637.313,166.378 647.5,169C 658.912,170.455 666.246,165.622 669.5,154.5 Z"/></g>
<g><path style="opacity:1" fill="#000000" d="M 546.5,161.5 C 556.499,159.012 561.833,162.846 562.5,173C 560.881,182.723 556.048,190.557 548,196.5C 546.275,199.674 544.942,203.007 544,206.5C 538.554,198.183 539.387,190.683 546.5,184C 553.74,181.359 555.906,176.525 553,169.5C 550.757,167.718 548.257,167.218 545.5,168C 543.141,169.358 540.807,170.358 538.5,171C 540.283,167.054 542.949,163.887 546.5,161.5 Z"/></g>
<g><path style="opacity:1" fill="#000000" d="M 673.5,173.5 C 673.611,174.117 673.944,174.617 674.5,175C 683.446,174.714 688.946,178.881 691,187.5C 691.91,194.179 692.743,200.845 693.5,207.5C 686.107,221.056 676.107,232.223 663.5,241C 659.729,243.219 655.729,244.885 651.5,246C 643.125,246.383 634.792,245.883 626.5,244.5C 599.266,245.613 572.266,248.613 545.5,253.5C 545.298,251.011 545.798,248.677 547,246.5C 549.018,244.65 550.851,242.65 552.5,240.5C 542.736,241.587 533.569,244.921 525,250.5C 525.415,245.973 526.748,241.64 529,237.5C 532.256,230.403 537.756,227.903 545.5,230C 551.579,232.137 557.579,234.471 563.5,237C 560.408,237.934 560.075,239.1 562.5,240.5C 566.47,239.232 570.47,238.065 574.5,237C 591.754,234.436 608.754,230.769 625.5,226C 633.787,220.934 636.62,213.767 634,204.5C 628.958,198.078 625.291,191.078 623,183.5C 623.718,182.549 624.551,182.383 625.5,183C 639.049,200.365 653.215,200.865 668,184.5C 669.879,180.741 671.713,177.075 673.5,173.5 Z"/></g>
<g><path style="opacity:1" fill="#fefefe" d="M 948.5,183.5 C 949.814,185.915 950.481,188.748 950.5,192C 950.186,197.506 949.853,203.006 949.5,208.5C 950.5,208.5 951.5,208.5 952.5,208.5C 952.864,213.247 951.198,217.081 947.5,220C 942.601,221.449 937.935,223.449 933.5,226C 932.056,226.781 930.723,226.614 929.5,225.5C 934.069,220.696 937.902,215.363 941,209.5C 944.214,201.027 946.714,192.361 948.5,183.5 Z"/></g>
<g><path style="opacity:1" fill="#010101" d="M 947.5,196.5 C 948.097,196.735 948.43,197.235 948.5,198C 947.879,201.186 947.212,204.352 946.5,207.5C 947.484,209.48 948.817,211.147 950.5,212.5C 947.52,218.155 942.853,220.988 936.5,221C 941.615,213.488 945.282,205.322 947.5,196.5 Z"/></g>
<g><path style="opacity:1" fill="#fdfdfd" d="M 471.5,200.5 C 477.492,200.797 477.825,202.13 472.5,204.5C 469.635,207.261 468.469,210.594 469,214.5C 470.503,218.172 472.003,221.838 473.5,225.5C 472.81,228.354 470.977,230.021 468,230.5C 457.143,225.932 454.143,218.265 459,207.5C 462.655,204.127 466.822,201.793 471.5,200.5 Z"/></g>
<g><path style="opacity:1" fill="#010101" d="M 580.5,200.5 C 583.844,201.007 586.178,202.841 587.5,206C 581.735,205.483 576.901,207.317 573,211.5C 571.591,204.95 574.091,201.283 580.5,200.5 Z"/></g>
<g><path style="opacity:1" fill="#000000" d="M 465.5,204.5 C 466.5,204.5 467.5,204.5 468.5,204.5C 467.989,207.028 467.322,209.528 466.5,212C 467.742,216.652 469.408,221.152 471.5,225.5C 467.494,228.469 463.994,227.803 461,223.5C 456.751,215.697 458.251,209.364 465.5,204.5 Z"/></g>
<g><path style="opacity:1" fill="#000000" d="M 568.5,206.5 C 570.075,209.529 571.241,212.862 572,216.5C 573.715,214.241 575.548,212.074 577.5,210C 580.366,208.543 583.366,208.21 586.5,209C 580.166,214.317 577.499,220.983 578.5,229C 576.167,230.167 573.833,231.333 571.5,232.5C 563.343,224.761 562.343,216.095 568.5,206.5 Z"/></g>
<g><path style="opacity:1" fill="#fefefe" d="M 683.5,211.5 C 684.675,211.281 685.675,211.614 686.5,212.5C 682.723,222.11 676.057,228.944 666.5,233C 660.728,234.732 658.061,232.565 658.5,226.5C 658.119,223.675 659.119,221.509 661.5,220C 668.683,219.644 675.35,217.644 681.5,214C 682.381,213.292 683.047,212.458 683.5,211.5 Z"/></g>
<g><path style="opacity:1" fill="#000000" d="M 521.5,213.5 C 522.043,213.56 522.376,213.893 522.5,214.5C 518.186,221.844 518.686,228.844 524,235.5C 526.019,241.199 524.686,246.199 520,250.5C 519.792,246.082 519.126,241.749 518,237.5C 514.792,233.632 511.625,229.799 508.5,226C 509.675,222.81 511.675,220.143 514.5,218C 517.239,216.974 519.572,215.474 521.5,213.5 Z"/></g>
<g><path style="opacity:1" fill="#000000" d="M 681.5,215.5 C 682.043,215.56 682.376,215.893 682.5,216.5C 678.589,222.911 673.256,227.744 666.5,231C 664.559,231.743 662.726,231.576 661,230.5C 660.022,227.331 660.522,224.497 662.5,222C 666.442,221.007 670.442,220.34 674.5,220C 677.239,218.974 679.572,217.474 681.5,215.5 Z"/></g>
<g><path style="opacity:1" fill="#fefefe" d="M 1004.5,219.5 C 1005.79,220.842 1006.63,222.509 1007,224.5C 1009.09,233.889 1006.92,242.055 1000.5,249C 997.237,250.858 993.737,252.025 990,252.5C 984.734,251.284 979.901,249.117 975.5,246C 969.914,244.406 966.914,246.572 966.5,252.5C 966.808,253.308 967.308,253.975 968,254.5C 968.759,266.472 970.259,278.305 972.5,290C 970.347,300.062 964.347,303.396 954.5,300C 945.076,296.583 936.076,292.249 927.5,287C 923.5,286.167 919.5,285.333 915.5,284.5C 917.793,280.852 921.127,279.019 925.5,279C 933.275,278.867 940.941,279.533 948.5,281C 952.526,277.111 954.526,272.277 954.5,266.5C 951.428,266.817 948.428,266.484 945.5,265.5C 949.106,263.397 952.273,260.731 955,257.5C 959.63,249.945 963.296,241.945 966,233.5C 968.911,229.804 972.744,228.138 977.5,228.5C 983.807,229.889 990.14,230.723 996.5,231C 999.3,227.225 1001.97,223.392 1004.5,219.5 Z"/></g>
<g><path style="opacity:1" fill="#000000" d="M 1003.5,223.5 C 1007.27,232.645 1005.6,240.812 998.5,248C 994.289,249.534 989.956,249.867 985.5,249C 981.269,246.597 976.936,244.43 972.5,242.5C 970.941,243.074 969.441,243.74 968,244.5C 965.333,251.16 961.833,257.327 957.5,263C 955.466,264.205 953.466,264.372 951.5,263.5C 956.547,259.087 960.38,253.754 963,247.5C 965.062,231.385 973.562,226.552 988.5,233C 996.722,234.89 1001.72,231.724 1003.5,223.5 Z"/></g>
<g><path style="opacity:1" fill="#fefefe" d="M 646.5,224.5 C 648.363,224.846 649.196,225.846 649,227.5C 646.252,229.458 643.418,231.291 640.5,233C 638.353,236.115 635.853,238.948 633,241.5C 628.188,241.949 623.354,241.449 618.5,240C 623.99,234.175 630.323,229.509 637.5,226C 640.695,225.819 643.695,225.319 646.5,224.5 Z"/></g>
<g><path style="opacity:1" fill="#030303" d="M 638.5,227.5 C 640.199,227.34 641.866,227.506 643.5,228C 641.957,229.878 640.124,231.378 638,232.5C 634.7,239.149 629.867,240.983 623.5,238C 627.872,233.439 632.872,229.939 638.5,227.5 Z"/></g>
<g><path style="opacity:1" fill="#fefefe" d="M 932.5,233.5 C 933.478,233.811 934.145,234.478 934.5,235.5C 933.098,239.539 931.598,243.539 930,247.5C 926.097,251.464 922.264,251.297 918.5,247C 924.966,244.367 929.633,239.867 932.5,233.5 Z"/></g>
<g><path style="opacity:1" fill="#fefefe" d="M 444.5,242.5 C 445.995,242.415 446.995,243.081 447.5,244.5C 440.092,245.409 435.259,249.409 433,256.5C 431.283,265.442 429.949,274.442 429,283.5C 428.274,288.142 425.774,291.309 421.5,293C 410.238,292.037 400.738,295.537 393,303.5C 390.398,307.706 388.064,312.039 386,316.5C 384.774,310.104 383.607,303.604 382.5,297C 383.35,289.304 387.016,283.304 393.5,279C 401.432,277.172 409.432,275.839 417.5,275C 419.613,267.836 421.78,260.669 424,253.5C 429.69,247.662 436.523,243.995 444.5,242.5 Z"/></g>
<g><path style="opacity:1" fill="#000000" d="M 928.5,242.5 C 929.271,245.27 928.104,247.27 925,248.5C 924.5,248.167 924,247.833 923.5,247.5C 925.521,246.145 927.188,244.479 928.5,242.5 Z"/></g>
<g><path style="opacity:1" fill="#000000" d="M 515.5,247.5 C 516.725,248.152 517.392,249.319 517.5,251C 517.333,252.167 517.167,253.333 517,254.5C 513.167,257 509.333,259.5 505.5,262C 503.422,261.1 501.089,260.6 498.5,260.5C 492.19,262.368 491.19,260.868 495.5,256C 501.611,254.608 507.611,252.941 513.5,251C 514.823,250.184 515.489,249.017 515.5,247.5 Z"/></g>
<g><path style="opacity:1" fill="#000000" d="M 851.5,247.5 C 857.868,247.17 864.202,247.504 870.5,248.5C 865.132,251.236 859.799,254.07 854.5,257C 850.538,259.934 849.038,263.767 850,268.5C 851.173,272.337 853.173,275.671 856,278.5C 864.147,285.254 872.147,292.254 880,299.5C 885.389,310.171 884.389,320.171 877,329.5C 863.305,343.097 846.805,349.597 827.5,349C 848.541,335.888 855.374,317.388 848,293.5C 845.863,287.421 843.529,281.421 841,275.5C 840.107,274.289 839.274,274.289 838.5,275.5C 830.282,295.627 816.948,299.794 798.5,288C 788.856,280.184 782.689,270.351 780,258.5C 786.398,266.085 794.231,271.418 803.5,274.5C 808.432,273.356 813.099,271.522 817.5,269C 827.741,259.891 839.074,252.724 851.5,247.5 Z"/></g>
<g><path style="opacity:1" fill="#000000" d="M 432.5,248.5 C 433.376,248.369 434.043,248.702 434.5,249.5C 432.329,252.505 430.829,255.839 430,259.5C 428.977,265.793 428.311,272.126 428,278.5C 427.308,281.936 426.308,285.27 425,288.5C 424.097,289.701 422.931,290.535 421.5,291C 405.559,289.216 394.059,295.383 387,309.5C 381.658,295.358 385.825,285.191 399.5,279C 405.942,278.917 412.275,278.251 418.5,277C 420.038,275.068 421.205,272.901 422,270.5C 421.059,260.837 424.559,253.504 432.5,248.5 Z"/></g>
<g><path style="opacity:1" fill="#fefefe" d="M 911.5,248.5 C 913.914,249.777 914.081,251.443 912,253.5C 910.062,256.106 907.562,257.939 904.5,259C 897.241,258.206 889.907,257.706 882.5,257.5C 882.452,254.708 883.785,252.875 886.5,252C 892.83,252.066 899.163,252.066 905.5,252C 907.879,251.284 909.879,250.117 911.5,248.5 Z"/></g>
<g><path style="opacity:1" fill="#fbfbfb" d="M 856.5,249.5 C 858.103,249.312 859.437,249.812 860.5,251C 855.298,253.528 850.631,256.861 846.5,261C 843.279,261.797 840.279,261.297 837.5,259.5C 838.748,257.541 840.415,256.041 842.5,255C 847.306,253.237 851.972,251.404 856.5,249.5 Z"/></g>
<g><path style="opacity:1" fill="#000000" d="M 886.5,254.5 C 893.707,254.338 901.041,254.171 908.5,254C 906.573,256.38 904.073,257.547 901,257.5C 896.135,256.575 891.301,255.575 886.5,254.5 Z"/></g>
<g><path style="opacity:1" fill="#fefefe" d="M 409.5,255.5 C 412.808,254.974 414.974,256.307 416,259.5C 417.615,264.09 416.115,266.923 411.5,268C 406.724,268.346 402.058,269.179 397.5,270.5C 398.903,263.332 402.903,258.332 409.5,255.5 Z"/></g>
<g><path style="opacity:1" fill="#000000" d="M 845.5,255.5 C 848.97,255.71 848.97,256.877 845.5,259C 844.056,259.781 842.723,259.614 841.5,258.5C 842.901,257.479 844.235,256.479 845.5,255.5 Z"/></g>
<g><path style="opacity:1" fill="#000000" d="M 964.5,255.5 C 965.117,255.611 965.617,255.944 966,256.5C 966.932,267.193 968.099,277.859 969.5,288.5C 970.475,295.248 967.641,298.915 961,299.5C 957.138,298.547 953.305,297.38 949.5,296C 940.589,290.712 931.256,286.212 921.5,282.5C 924.539,281.259 927.706,280.592 931,280.5C 937.073,282.23 943.24,283.063 949.5,283C 950.5,282.167 951.5,281.333 952.5,280.5C 954.945,275.391 956.778,270.058 958,264.5C 961.647,262.529 963.814,259.529 964.5,255.5 Z"/></g>
<g><path style="opacity:1" fill="#000000" d="M 410.5,257.5 C 413.698,258.854 414.864,261.187 414,264.5C 410.004,266.042 405.838,267.042 401.5,267.5C 401.167,267.167 400.833,266.833 400.5,266.5C 402.634,262.026 405.968,259.026 410.5,257.5 Z"/></g>
<g><path style="opacity:1" fill="#fefefe" d="M 578.5,268.5 C 608.377,267.568 637.71,271.068 666.5,279C 671.828,280.67 676.828,282.837 681.5,285.5C 652.221,315.598 625.388,347.598 601,381.5C 594.213,392.767 586.713,403.434 578.5,413.5C 568.356,405.521 560.19,395.855 554,384.5C 540.551,356.924 534.384,327.757 535.5,297C 535.31,289.064 535.976,281.231 537.5,273.5C 551.188,270.869 564.854,269.203 578.5,268.5 Z"/></g>
<g><path style="opacity:1" fill="#000000" d="M 586.5,270.5 C 617.537,270.15 647.87,274.983 677.5,285C 677.957,285.414 678.291,285.914 678.5,286.5C 640.61,324.541 607.443,366.207 579,411.5C 562.176,397.141 550.843,379.141 545,357.5C 538.17,330.211 536.003,302.545 538.5,274.5C 554.595,272.502 570.595,271.169 586.5,270.5 Z"/></g>
<g><path style="opacity:1" fill="#fefefe" d="M 453.5,275.5 C 457.125,276.063 460.625,277.063 464,278.5C 466.746,277.35 469.579,276.85 472.5,277C 462.617,285.886 453.117,295.052 444,304.5C 436.424,313.987 429.091,323.654 422,333.5C 419.448,329.129 419.115,324.463 421,319.5C 423.057,313.719 425.39,308.053 428,302.5C 430.12,299.92 432.287,299.92 434.5,302.5C 438.742,297.028 442.242,291.028 445,284.5C 447.362,280.973 450.196,277.973 453.5,275.5 Z"/></g>
<g><path style="opacity:1" fill="#000000" d="M 453.5,277.5 C 456.766,277.629 459.766,278.629 462.5,280.5C 463.451,279.674 464.451,279.508 465.5,280C 449.088,294.733 434.921,311.233 423,329.5C 422.333,326.167 422.333,322.833 423,319.5C 425.333,314.167 427.667,308.833 430,303.5C 432.216,304.392 434.716,304.392 437.5,303.5C 441.327,293.834 446.66,285.168 453.5,277.5 Z"/></g>
<g><path style="opacity:1" fill="#fefefe" d="M 516.5,282.5 C 518.233,283.008 518.566,283.841 517.5,285C 518.446,314.177 524.28,342.343 535,369.5C 544.714,390.04 558.881,406.707 577.5,419.5C 564.963,438.568 553.963,458.568 544.5,479.5C 550.877,483.689 557.544,487.355 564.5,490.5C 571.508,478.486 578.008,466.153 584,453.5C 589.081,444.335 594.415,435.335 600,426.5C 667.548,463.747 733.048,460.747 796.5,417.5C 797.799,418.09 798.632,419.09 799,420.5C 818.112,510.491 793.612,585.991 725.5,647C 708.291,660.445 689.624,671.611 669.5,680.5C 645.63,667.628 628.464,648.628 618,623.5C 610.306,586.94 593.806,555.107 568.5,528C 564.375,525.211 560.542,522.044 557,518.5C 555.699,516.635 555.365,514.635 556,512.5C 558.833,506.167 561.667,499.833 564.5,493.5C 557.833,489.833 551.167,486.167 544.5,482.5C 542.515,484.457 541.015,486.79 540,489.5C 537.529,495.085 535.362,500.752 533.5,506.5C 510.602,501.799 487.936,502.632 465.5,509C 442.06,518.757 417.894,526.257 393,531.5C 389.835,531.604 389.001,530.438 390.5,528C 376.2,432.169 408.2,356.169 486.5,300C 495.582,294.598 504.915,289.598 514.5,285C 515.381,284.292 516.047,283.458 516.5,282.5 Z"/></g>
<g><path style="opacity:1" fill="#000000" d="M 513.5,287.5 C 515.745,287.541 516.412,288.375 515.5,290C 516.959,315.916 522.125,341.083 531,365.5C 540.266,387.08 554.266,404.746 573,418.5C 573.667,419.5 573.667,420.5 573,421.5C 562.46,439.373 552.793,457.706 544,476.5C 543.261,477.574 542.261,478.241 541,478.5C 501.376,456.946 463.876,432.28 428.5,404.5C 427.479,405.002 427.312,405.668 428,406.5C 462.999,434.143 500.166,458.643 539.5,480C 540.357,480.689 541.023,481.522 541.5,482.5C 538.112,488.999 535.112,495.666 532.5,502.5C 531.672,503.415 530.672,504.081 529.5,504.5C 507.634,499.903 485.968,500.737 464.5,507C 441.581,516.814 417.914,524.314 393.5,529.5C 380.148,459.082 396.315,396.415 442,341.5C 462.621,318.973 486.454,300.973 513.5,287.5 Z"/></g>
<g><path style="opacity:1" fill="#fefefe" d="M 860.5,290.5 C 865.602,291.757 869.435,294.757 872,299.5C 876.859,308.048 876.526,316.381 871,324.5C 864.33,329.674 857.83,335.008 851.5,340.5C 850.692,340.192 850.025,339.692 849.5,339C 855.536,331.234 859.036,322.401 860,312.5C 860.109,305.106 860.276,297.773 860.5,290.5 Z"/></g>
<g><path style="opacity:1" fill="#000000" d="M 862.5,292.5 C 873.717,300.318 876.217,310.318 870,322.5C 866.146,326.183 861.98,329.516 857.5,332.5C 857.167,332.167 856.833,331.833 856.5,331.5C 859.41,325.533 861.244,319.199 862,312.5C 862.315,305.715 862.482,299.048 862.5,292.5 Z"/></g>
<g><path style="opacity:1" fill="#fefefe" d="M 702.5,295.5 C 703.873,295.343 705.207,295.51 706.5,296C 736.558,314.445 760.391,338.945 778,369.5C 784.987,382.474 791.154,395.807 796.5,409.5C 734.712,444.352 670.712,448.852 604.5,423C 603.978,422.439 603.645,421.772 603.5,421C 631.397,375.255 664.397,333.422 702.5,295.5 Z"/></g>
<g><path style="opacity:1" fill="#000000" d="M 703.5,297.5 C 724.831,308.99 742.997,324.324 758,343.5C 773.391,363.619 785.057,385.619 793,409.5C 732.352,442.376 669.852,446.209 605.5,421C 633.433,376.216 666.1,335.049 703.5,297.5 Z"/></g>
<g><path style="opacity:1" fill="#fefefe" d="M 926.5,298.5 C 937.064,298.743 946.398,302.243 954.5,309C 953.421,309.956 952.255,310.789 951,311.5C 946.68,308.059 942.847,308.225 939.5,312C 947.064,319.788 955.731,326.121 965.5,331C 975.461,338.287 982.294,347.787 986,359.5C 988.069,366.565 985.569,370.565 978.5,371.5C 969.286,369.394 960.62,365.894 952.5,361C 938.049,356.506 924.382,358.172 911.5,366C 909.47,367.896 907.803,370.063 906.5,372.5C 905.581,369.374 906.081,366.374 908,363.5C 917.566,346.921 931.4,341.921 949.5,348.5C 951.266,348.566 952.266,347.732 952.5,346C 950.888,343.384 948.888,341.05 946.5,339C 937.446,333.806 928.112,329.139 918.5,325C 908.274,319.161 906.941,311.828 914.5,303C 918.301,300.584 922.301,299.084 926.5,298.5 Z"/></g>
<g><path style="opacity:1" fill="#fefefe" d="M 374.5,299.5 C 375.497,299.47 376.164,299.97 376.5,301C 375.464,304.121 375.297,307.287 376,310.5C 380.39,319.067 380.557,327.734 376.5,336.5C 373.176,333.006 370.009,329.339 367,325.5C 366.333,322.5 366.333,319.5 367,316.5C 369.515,310.807 372.015,305.141 374.5,299.5 Z"/></g>
<g><path style="opacity:1" fill="#000000" d="M 926.5,300.5 C 933.67,300.501 940.337,302.334 946.5,306C 943.67,306.869 941.003,308.036 938.5,309.5C 937.693,311.961 938.193,314.294 940,316.5C 947.291,322.452 955.125,327.619 963.5,332C 972.995,339.164 979.828,348.331 984,359.5C 986.167,368 983,371.167 974.5,369C 967.773,366.803 961.439,363.803 955.5,360C 940.4,353.867 925.9,355.034 912,363.5C 915.832,354.377 922.832,349.043 933,347.5C 938.503,348.453 944.003,349.453 949.5,350.5C 954.013,350.105 955.513,347.771 954,343.5C 951.463,340.628 948.63,338.128 945.5,336C 936.377,330.956 927.044,326.289 917.5,322C 910.002,316.361 909.669,310.361 916.5,304C 919.85,302.514 923.184,301.347 926.5,300.5 Z"/></g>
<g><path style="opacity:1" fill="#fefefe" d="M 410.5,305.5 C 412.344,306.204 412.844,307.537 412,309.5C 409.916,313.336 407.583,317.003 405,320.5C 403.88,325.882 402.547,331.216 401,336.5C 395.92,340.978 393.42,339.645 393.5,332.5C 394.746,320.612 400.413,311.612 410.5,305.5 Z"/></g>
<g><path style="opacity:1" fill="#000000" d="M 372.5,308.5 C 376.64,315.776 377.473,323.443 375,331.5C 371.138,328.987 368.971,325.487 368.5,321C 369.138,316.588 370.471,312.422 372.5,308.5 Z"/></g>
<g><path style="opacity:1" fill="#000000" d="M 407.5,309.5 C 408.376,309.369 409.043,309.702 409.5,310.5C 403.587,316.998 400.42,324.665 400,333.5C 397.309,338.985 395.809,338.651 395.5,332.5C 396.021,328.769 396.854,325.102 398,321.5C 400.619,317.05 403.786,313.05 407.5,309.5 Z"/></g>
<g><path style="opacity:1" fill="#fefefe" d="M 910.5,343.5 C 911.5,343.5 912.5,343.5 913.5,343.5C 908.485,360.323 898.485,373.49 883.5,383C 882.056,383.781 880.723,383.614 879.5,382.5C 884.094,372.718 885.094,362.718 882.5,352.5C 887.72,354.135 893.053,354.635 898.5,354C 903.286,351.38 907.286,347.88 910.5,343.5 Z"/></g>
<g><path style="opacity:1" fill="#fefefe" d="M 382.5,348.5 C 387.771,348.005 390.104,350.505 389.5,356C 388.882,362.353 387.715,368.52 386,374.5C 383.271,368.475 381.438,362.142 380.5,355.5C 380.772,353.022 381.438,350.689 382.5,348.5 Z"/></g>
<g><path style="opacity:1" fill="#000000" d="M 907.5,349.5 C 908.043,349.56 908.376,349.893 908.5,350.5C 903.111,362.727 894.944,372.727 884,380.5C 884.432,375.33 885.265,370.164 886.5,365C 885.886,362.146 885.219,359.313 884.5,356.5C 889.075,356.378 893.742,356.212 898.5,356C 902.24,354.802 905.24,352.635 907.5,349.5 Z"/></g>
<g><path style="opacity:1" fill="#030303" d="M 383.5,350.5 C 384.5,350.5 385.5,350.5 386.5,350.5C 386.33,351.822 386.663,352.989 387.5,354C 386.965,358.265 386.131,362.432 385,366.5C 383.2,360.881 382.7,355.548 383.5,350.5 Z"/></g>
<g><path style="opacity:1" fill="#fefefe" d="M 842.5,352.5 C 844.429,352.231 846.095,352.731 847.5,354C 844.369,355.297 842.036,357.464 840.5,360.5C 841.967,360.723 843.467,361.056 845,361.5C 847.635,370.462 844.469,374.628 835.5,374C 827.705,369.009 827.039,363.342 833.5,357C 836.437,355.199 839.437,353.699 842.5,352.5 Z"/></g>
<g><path style="opacity:1" fill="#fefefe" d="M 369.5,353.5 C 372.12,357.475 374.287,361.808 376,366.5C 378.562,372.295 377.728,377.462 373.5,382C 368.877,383.7 364.544,385.867 360.5,388.5C 358.034,393.696 357.034,399.196 357.5,405C 357.667,408.5 357.833,412 358,415.5C 358.17,417.715 358.837,419.715 360,421.5C 362.075,417.421 364.908,413.921 368.5,411C 370.112,410.28 371.612,410.446 373,411.5C 373.667,414.833 373.667,418.167 373,421.5C 368.493,438.546 365.993,455.879 365.5,473.5C 363.408,473.439 361.908,472.439 361,470.5C 358.609,464.051 355.942,457.718 353,451.5C 349.197,446.944 345.197,442.61 341,438.5C 337.79,431.888 337.79,425.222 341,418.5C 343.607,413.62 345.94,408.62 348,403.5C 348.674,394.38 350.008,385.38 352,376.5C 355.787,373.086 360.287,371.253 365.5,371C 366.333,370.167 367.167,369.333 368,368.5C 369.369,363.372 369.869,358.372 369.5,353.5 Z"/></g>
<g><path style="opacity:1" fill="#000000" d="M 837.5,356.5 C 838.552,356.351 839.552,356.517 840.5,357C 837.743,359.764 836.743,362.93 837.5,366.5C 839.332,365.752 840.999,364.752 842.5,363.5C 844.692,368.398 843.192,371.398 838,372.5C 832.18,370.996 830.18,367.329 832,361.5C 833.73,359.598 835.563,357.931 837.5,356.5 Z"/></g>
<g><path style="opacity:1" fill="#000000" d="M 371.5,362.5 C 374.386,366.673 375.553,371.34 375,376.5C 374.535,377.931 373.701,379.097 372.5,380C 368.952,381.941 365.286,383.607 361.5,385C 358.75,387.67 356.917,390.836 356,394.5C 354.875,404.653 355.542,414.653 358,424.5C 358.718,425.451 359.551,425.617 360.5,425C 362.774,419.933 366.107,415.766 370.5,412.5C 370.833,413.833 371.167,415.167 371.5,416.5C 367.758,433.025 364.758,449.692 362.5,466.5C 359.471,459.574 355.971,452.908 352,446.5C 349,443.833 346,441.167 343,438.5C 339.607,431.063 339.94,423.73 344,416.5C 345.667,413.5 347.333,410.5 349,407.5C 350.772,398.234 352.106,388.901 353,379.5C 353.465,378.069 354.299,376.903 355.5,376C 359.425,374.416 363.425,373.083 367.5,372C 369.902,369.297 371.235,366.13 371.5,362.5 Z"/></g>
<g><path style="opacity:1" fill="#fefefe" d="M 924.5,373.5 C 933.923,372.92 942.59,375.087 950.5,380C 958.518,388.038 960.685,397.538 957,408.5C 950.088,421.268 940.588,423.434 928.5,415C 926.333,412.833 924.167,410.667 922,408.5C 921.316,407.216 921.483,406.049 922.5,405C 927.5,404.667 932.5,404.333 937.5,404C 942.115,402.923 943.615,400.09 942,395.5C 938.604,391.797 934.437,390.631 929.5,392C 923.777,394.429 918.943,397.929 915,402.5C 908.212,398.013 900.879,394.68 893,392.5C 892.333,391.5 892.333,390.5 893,389.5C 901.654,380.257 912.154,374.924 924.5,373.5 Z"/></g>
<g><path style="opacity:1" fill="#000000" d="M 924.5,375.5 C 936.665,374.157 946.498,378.157 954,387.5C 958.045,397.34 956.878,406.507 950.5,415C 946.106,417.374 941.44,418.041 936.5,417C 931.785,414.973 927.785,411.973 924.5,408C 930.051,406.835 935.717,405.835 941.5,405C 946.066,398.988 945.066,393.988 938.5,390C 928.437,388.866 920.437,392.366 914.5,400.5C 908.8,396.039 902.467,392.705 895.5,390.5C 903.455,382.023 913.122,377.023 924.5,375.5 Z"/></g>
<g><path style="opacity:1" fill="#fefefe" d="M 887.5,395.5 C 896.81,396.637 903.476,401.471 907.5,410C 907.167,410.5 906.833,411 906.5,411.5C 904.891,410.112 903.058,409.112 901,408.5C 896.92,410.25 893.087,412.417 889.5,415C 884.167,415.667 878.833,415.667 873.5,415C 870.881,414.849 868.547,414.015 866.5,412.5C 871.019,408.815 875.019,404.648 878.5,400C 881.462,398.15 884.462,396.65 887.5,395.5 Z"/></g>
<g><path style="opacity:1" fill="#000000" d="M 884.5,398.5 C 892.069,397.457 898.069,399.957 902.5,406C 897.596,407.785 892.929,410.119 888.5,413C 883.293,413.759 878.126,413.592 873,412.5C 872.5,412.167 872,411.833 871.5,411.5C 874.882,406.118 879.215,401.785 884.5,398.5 Z"/></g>
<g><path style="opacity:1" fill="#fefefe" d="M 861.5,404.5 C 862.573,405.251 862.74,406.251 862,407.5C 856.779,413.226 853.946,419.726 853.5,427C 848.245,427.231 843.079,426.731 838,425.5C 837.312,424.668 837.479,424.002 838.5,423.5C 846.525,417.464 854.191,411.131 861.5,404.5 Z"/></g>
<g><path style="opacity:1" fill="#000000" d="M 854.5,412.5 C 855.043,412.56 855.376,412.893 855.5,413.5C 853.53,417.391 851.863,421.391 850.5,425.5C 848.033,425.26 845.367,424.593 842.5,423.5C 846.546,419.783 850.546,416.116 854.5,412.5 Z"/></g>
<g><path style="opacity:1" fill="#fefefe" d="M 906.5,416.5 C 914.031,415.614 920.031,418.114 924.5,424C 924.002,425.158 923.169,425.991 922,426.5C 915.454,426.557 910.621,429.39 907.5,435C 902.227,438.028 896.894,438.028 891.5,435C 889.167,433.5 886.833,432 884.5,430.5C 883.167,429.167 883.167,427.833 884.5,426.5C 892.108,430.132 897.608,428.132 901,420.5C 903.015,419.303 904.849,417.97 906.5,416.5 Z"/></g>
<g><path style="opacity:1" fill="#010101" d="M 906.5,418.5 C 909.247,418.187 911.914,418.52 914.5,419.5C 916.678,420.979 919.012,422.312 921.5,423.5C 915.16,424.664 910.16,427.83 906.5,433C 900.575,435.785 894.908,435.119 889.5,431C 892.754,430.75 895.754,429.75 898.5,428C 901.031,424.642 903.698,421.476 906.5,418.5 Z"/></g>
<g><path style="opacity:1" fill="#000000" d="M 795.5,420.5 C 815.717,505.46 794.384,578.293 731.5,639C 713.429,654.703 693.429,667.37 671.5,677C 667.619,676.573 663.953,675.24 660.5,673C 641.113,659.94 627.279,642.44 619,620.5C 614.785,602.853 608.785,585.853 601,569.5C 594.079,557.32 586.412,545.653 578,534.5C 571.333,528.5 564.667,522.5 558,516.5C 559.764,509.279 562.431,502.279 566,495.5C 566.414,495.043 566.914,494.709 567.5,494.5C 631.142,526.602 697.809,549.268 767.5,562.5C 698.609,547.035 632.276,523.868 568.5,493C 567.724,491.23 567.89,489.397 569,487.5C 578.623,467.587 589.29,448.254 601,429.5C 667.831,465.455 732.664,462.455 795.5,420.5 Z"/></g>
<g><path style="opacity:1" fill="#fefefe" d="M 924.5,431.5 C 925.833,431.5 927.167,431.5 928.5,431.5C 924.241,437.289 920.074,443.289 916,449.5C 913.782,459.041 910.949,468.375 907.5,477.5C 904.613,480.755 900.946,482.422 896.5,482.5C 891.283,481.236 886.116,481.236 881,482.5C 880.833,482 880.667,481.5 880.5,481C 885.909,477.929 890.409,473.762 894,468.5C 897.78,460.121 902.114,452.121 907,444.5C 912.734,439.918 918.568,435.585 924.5,431.5 Z"/></g>
<g><path style="opacity:1" fill="#fefefe" d="M 820.5,432.5 C 827.026,431.922 832.859,433.588 838,437.5C 839.275,439.717 840.275,442.051 841,444.5C 841.333,449.833 841.667,455.167 842,460.5C 842.461,463.775 844.127,466.109 847,467.5C 848.477,466.556 849.477,465.223 850,463.5C 845.964,439.198 855.798,429.698 879.5,435C 882.008,435.115 884.008,436.115 885.5,438C 882.142,440.108 878.475,441.774 874.5,443C 870.629,446.075 868.629,450.075 868.5,455C 869.454,463.314 871.12,471.481 873.5,479.5C 882.586,484.147 887.586,491.647 888.5,502C 886.838,514.069 880.005,520.902 868,522.5C 860.571,520.423 860.738,518.59 868.5,517C 874.778,512.05 875.111,506.717 869.5,501C 863.808,498.473 858.975,499.639 855,504.5C 852.667,509.167 850.333,513.833 848,518.5C 844.95,522.13 841.117,523.297 836.5,522C 833.08,519.241 829.414,516.908 825.5,515C 831.135,501.38 832.968,487.214 831,472.5C 828.563,458.786 825.063,445.453 820.5,432.5 Z"/></g>
<g><path style="opacity:1" fill="#000000" d="M 822.5,435.5 C 830.379,433.86 835.879,436.86 839,444.5C 839.121,451.246 839.788,457.913 841,464.5C 844.667,471.167 848.333,471.167 852,464.5C 852.188,456.782 852.854,449.115 854,441.5C 857.931,437.088 862.931,435.088 869,435.5C 873.089,435.45 876.922,436.283 880.5,438C 873.772,439.727 869.272,443.894 867,450.5C 867.055,460.11 868.222,469.61 870.5,479C 870.42,487.749 866.087,491.415 857.5,490C 853.217,487.385 849.217,484.385 845.5,481C 844.167,480.333 842.833,480.333 841.5,481C 838.82,486.88 836.987,493.047 836,499.5C 834,503.5 832,507.5 830,511.5C 829.5,511 829,510.5 828.5,510C 830.589,506.068 832.089,501.901 833,497.5C 833.667,488.5 833.667,479.5 833,470.5C 830.745,461.891 828.745,453.225 827,444.5C 825.997,441.16 824.497,438.16 822.5,435.5 Z"/></g>
<g><path style="opacity:1" fill="#010101" d="M 918.5,437.5 C 919.376,437.369 920.043,437.702 920.5,438.5C 913.755,448.448 909.588,459.448 908,471.5C 906.413,477.635 902.413,480.635 896,480.5C 893.036,480.285 890.202,479.785 887.5,479C 890.372,476.463 892.872,473.63 895,470.5C 898.73,462.707 902.73,455.041 907,447.5C 910.438,443.559 914.271,440.225 918.5,437.5 Z"/></g>
<g><path style="opacity:1" fill="#000000" d="M 872.5,481.5 C 885.728,489.001 888.894,499.668 882,513.5C 877.898,518.303 872.732,520.47 866.5,520C 877.342,514.537 878.675,507.537 870.5,499C 865.354,496.688 860.521,497.188 856,500.5C 852.292,506.751 848.459,512.917 844.5,519C 842.305,520.373 839.971,520.706 837.5,520C 835.333,518.5 833.167,517 831,515.5C 836.22,505 840.386,494 843.5,482.5C 847.167,485.333 850.833,488.167 854.5,491C 864.29,494.697 870.29,491.53 872.5,481.5 Z"/></g>
<g><path style="opacity:1" fill="#000000" d="M 552.5,527.5 C 566.023,537.195 576.523,549.529 584,564.5C 592.431,585.225 600.098,606.225 607,627.5C 615.062,650.336 628.895,668.67 648.5,682.5C 649.833,683.167 649.833,683.833 648.5,684.5C 607.729,696.792 567.062,696.292 526.5,683C 523.145,681.882 519.978,680.382 517,678.5C 516.418,669.806 516.752,661.139 518,652.5C 525.339,609.655 536.839,567.988 552.5,527.5 Z"/></g>
<g><path style="opacity:1" fill="#fefefe" d="M 819.5,532.5 C 830.151,534.161 840.817,535.828 851.5,537.5C 855.543,537.858 859.209,536.858 862.5,534.5C 862.833,534.833 863.167,535.167 863.5,535.5C 862.221,537.146 860.555,538.313 858.5,539C 843.816,545.43 828.483,548.43 812.5,548C 812.207,541.745 814.541,536.578 819.5,532.5 Z"/></g>
<g><path style="opacity:1" fill="#000000" d="M 820.5,534.5 C 829.591,535.806 838.591,537.639 847.5,540C 837.358,543.831 826.858,545.997 816,546.5C 814.941,546.37 814.108,545.87 813.5,545C 814.916,540.776 817.249,537.276 820.5,534.5 Z"/></g>
<g><path style="opacity:1" fill="#fefefe" d="M 844.5,565.5 C 847.572,565.183 850.572,565.516 853.5,566.5C 847.829,567.835 842.496,570.002 837.5,573C 832.923,576.989 828.923,581.489 825.5,586.5C 821.481,588.018 817.648,587.684 814,585.5C 812.996,579.146 815.496,574.646 821.5,572C 828.814,568.092 836.48,565.926 844.5,565.5 Z"/></g>
<g><path style="opacity:1" fill="#000000" d="M 835.5,568.5 C 836.873,568.343 838.207,568.51 839.5,569C 833.369,573.254 828.369,578.588 824.5,585C 812.847,585.996 811.514,582.663 820.5,575C 825.336,572.243 830.336,570.077 835.5,568.5 Z"/></g>
<g><path style="opacity:1" fill="#fefefe" d="M 825.5,594.5 C 826.756,594.461 827.756,594.961 828.5,596C 817.744,606.879 804.744,612.546 789.5,613C 790.956,619.759 791.79,626.593 792,633.5C 793,635.167 794,636.833 795,638.5C 798.361,641.24 801.528,644.073 804.5,647C 803.507,648.967 801.84,650.134 799.5,650.5C 792.713,650.193 787.546,647.193 784,641.5C 782.667,636.833 781.333,632.167 780,627.5C 777.406,623.953 773.906,622.119 769.5,622C 773.612,620.191 777.279,621.024 780.5,624.5C 782.738,628.916 784.238,633.582 785,638.5C 788.036,646.235 793.536,648.901 801.5,646.5C 796.474,643.641 792.641,639.641 790,634.5C 789.249,627.508 788.582,620.508 788,613.5C 786.681,610.37 784.848,607.704 782.5,605.5C 783.596,599.948 786.929,596.615 792.5,595.5C 796.491,596.652 800.158,598.485 803.5,601C 807.261,601.738 810.928,601.405 814.5,600C 818.259,598.121 821.925,596.287 825.5,594.5 Z"/></g>
<g><path style="opacity:1" fill="#000000" d="M 791.5,597.5 C 796.751,599.569 801.918,601.902 807,604.5C 810.504,603.402 814.004,602.568 817.5,602C 808.21,609.401 797.877,611.401 786.5,608C 783.994,605.451 784.16,602.951 787,600.5C 788.409,599.219 789.909,598.219 791.5,597.5 Z"/></g>
<g><path style="opacity:1" fill="#fefefe" d="M 419.5,625.5 C 423.481,626.633 427.147,628.467 430.5,631C 444.057,644.9 459.057,656.9 475.5,667C 478.645,668.978 481.312,671.478 483.5,674.5C 482.975,675.192 482.308,675.692 481.5,676C 470.325,675.839 459.325,677.006 448.5,679.5C 442.2,679.367 439.2,676.2 439.5,670C 439.968,667.143 440.134,664.309 440,661.5C 436.279,657.289 432.279,653.289 428,649.5C 425.164,641.481 422.33,633.481 419.5,625.5 Z"/></g>
<g><path style="opacity:1" fill="#000000" d="M 423.5,629.5 C 425.595,630.412 427.595,631.579 429.5,633C 435.531,639.366 441.864,645.366 448.5,651C 459.009,658.088 469.342,665.421 479.5,673C 469.6,674.15 459.6,675.317 449.5,676.5C 444.249,677.386 441.582,675.22 441.5,670C 442.278,666.845 442.445,663.678 442,660.5C 437.023,655.854 432.356,650.854 428,645.5C 426.496,640.148 424.996,634.815 423.5,629.5 Z"/></g>
<g><path style="opacity:1" fill="#fefefe" d="M 761.5,647.5 C 762.833,647.5 764.167,647.5 765.5,647.5C 764.357,655.616 760.69,662.45 754.5,668C 752.966,668.923 751.299,669.423 749.5,669.5C 746.846,668.732 744.179,668.566 741.5,669C 737.526,671.659 733.192,673.159 728.5,673.5C 728.441,669.452 730.108,666.285 733.5,664C 743.504,659.466 752.837,653.966 761.5,647.5 Z"/></g>
<g><path style="opacity:1" fill="#000000" d="M 762.5,649.5 C 763.097,649.735 763.43,650.235 763.5,651C 761.389,656.784 758.056,661.784 753.5,666C 752.127,666.875 750.627,667.375 749,667.5C 743.158,665.613 737.991,666.78 733.5,671C 732.365,671.749 731.365,671.583 730.5,670.5C 732.356,667.81 734.689,665.644 737.5,664C 746.551,660.15 754.885,655.316 762.5,649.5 Z"/></g>
<g><path style="opacity:1" fill="#fefffe" d="M 560.5,704.5 C 557.943,701.892 555.277,699.392 552.5,697C 544.724,695.659 537.391,696.826 530.5,700.5C 536.658,694.768 543.991,692.935 552.5,695C 556.698,696.905 559.364,700.072 560.5,704.5 Z"/></g>
<g><path style="opacity:1" fill="#fefffe" d="M 530.5,700.5 C 529.998,702.085 528.998,702.585 527.5,702C 528.244,700.961 529.244,700.461 530.5,700.5 Z"/></g>
<g><path style="opacity:1" fill="#fefefe" d="M 560.5,704.5 C 562.117,706.121 563.284,708.121 564,710.5C 566.63,719.021 568.63,727.687 570,736.5C 572.228,756.732 573.894,776.732 575,796.5C 577.347,818.597 580.347,840.597 584,862.5C 584.911,878.823 585.577,895.156 586,911.5C 586.718,926.859 589.384,941.859 594,956.5C 599.617,961.959 604.951,967.625 610,973.5C 614.778,983.069 615.778,993.069 613,1003.5C 609,1017.5 605,1031.5 601,1045.5C 599.753,1070.4 595.42,1094.73 588,1118.5C 585.284,1122.77 582.451,1126.94 579.5,1131C 580.309,1142.16 582.642,1152.99 586.5,1163.5C 586.167,1164.17 585.833,1164.83 585.5,1165.5C 580.957,1155.33 578.624,1144.66 578.5,1133.5C 570.504,1138.98 563.171,1145.48 556.5,1153C 555.668,1153.69 555.002,1153.52 554.5,1152.5C 563.567,1142.93 572.734,1133.6 582,1124.5C 585.748,1119 588.415,1113 590,1106.5C 594.555,1086.4 597.555,1066.06 599,1045.5C 603.153,1031.22 607.153,1016.89 611,1002.5C 615.103,987.449 611.269,974.949 599.5,965C 591.705,958.873 584.205,952.373 577,945.5C 570.441,935.552 563.274,926.052 555.5,917C 552.5,915.333 549.5,913.667 546.5,912C 538.928,911.348 531.595,909.681 524.5,907C 515.273,901.219 505.606,896.219 495.5,892C 488.901,890.504 482.234,890.171 475.5,891C 466.523,893.309 460.356,898.809 457,907.5C 448.664,927.965 453.498,944.465 471.5,957C 486.775,962.138 501.108,969.138 514.5,978C 519.259,979.762 523.926,980.929 528.5,981.5C 523.421,982.718 518.587,982.052 514,979.5C 515.141,991.406 515.808,1003.41 516,1015.5C 516.77,1020.93 518.603,1025.93 521.5,1030.5C 520.726,1031.71 519.893,1031.71 519,1030.5C 516.739,1026.05 515.072,1021.38 514,1016.5C 513.667,1007.17 513.333,997.833 513,988.5C 512.416,979.747 507.916,974.081 499.5,971.5C 497.891,984.77 497.057,998.103 497,1011.5C 495.984,1022.28 494.317,1032.95 492,1043.5C 487.465,1050.1 481.299,1052.27 473.5,1050C 475.432,1058.41 472.765,1065.41 465.5,1071C 460.807,1072.88 456.141,1072.72 451.5,1070.5C 446.171,1081.33 437.505,1085.5 425.5,1083C 406.473,1074.64 390.307,1062.47 377,1046.5C 375.343,1081.88 382.009,1115.55 397,1147.5C 400.886,1154.39 406.386,1159.55 413.5,1163C 423.606,1167.98 434.273,1170.81 445.5,1171.5C 447.429,1171.46 449.262,1171.13 451,1170.5C 451.75,1171.13 452.584,1171.63 453.5,1172C 451.2,1173.11 448.7,1173.61 446,1173.5C 439.064,1172.94 432.23,1172.1 425.5,1171C 433.041,1181.58 438.874,1193.08 443,1205.5C 443.667,1207.83 443.667,1210.17 443,1212.5C 438.948,1196.73 431.948,1182.4 422,1169.5C 412.213,1165.45 403.879,1159.45 397,1151.5C 387.604,1133.93 381.27,1115.27 378,1095.5C 376.41,1077.82 374.743,1060.15 373,1042.5C 369.611,1034.43 364.611,1027.43 358,1021.5C 349.687,1009.81 349.354,997.806 357,985.5C 360.468,980.066 364.301,974.899 368.5,970C 374.228,964.684 380.561,963.184 387.5,965.5C 387.833,964.667 388.167,963.833 388.5,963C 382.535,948.395 385.035,935.562 396,924.5C 401.557,919.309 407.39,914.476 413.5,910C 421.253,906.658 428.919,906.825 436.5,910.5C 435.415,896.309 439.748,884.142 449.5,874C 452.789,871.522 456.456,869.856 460.5,869C 477.172,867.04 492.005,871.207 505,881.5C 507.838,885.172 510.171,889.172 512,893.5C 513.071,880.029 513.571,866.529 513.5,853C 511.788,813.471 512.288,773.971 515,734.5C 515.332,724.169 517.999,714.502 523,705.5C 523.837,703.993 525.004,703.493 526.5,704C 521.902,710.787 519.069,718.287 518,726.5C 516.149,752.799 514.982,779.132 514.5,805.5C 515.744,833.508 515.744,861.508 514.5,889.5C 514.892,892.849 515.392,896.183 516,899.5C 526.106,906.313 537.273,910.147 549.5,911C 557.618,915.451 564.118,921.617 569,929.5C 573.88,939.579 580.88,947.913 590,954.5C 587.834,944.324 586.168,933.99 585,923.5C 583.816,903.846 582.816,884.179 582,864.5C 578.286,842.268 575.286,819.935 573,797.5C 571.915,780.147 570.582,762.814 569,745.5C 567.378,731.556 564.545,717.889 560.5,704.5 Z"/></g>
<g><path style="opacity:1" fill="#fefefe" d="M 636.5,711.5 C 641.498,711.604 642.331,713.271 639,716.5C 638,720.833 637,725.167 636,729.5C 633.916,731.647 631.583,732.314 629,731.5C 624.336,733.915 619.503,735.915 614.5,737.5C 615.167,730.495 618.167,724.829 623.5,720.5C 624.768,721.428 626.101,721.595 627.5,721C 630.029,717.306 633.029,714.14 636.5,711.5 Z"/></g>
<g><path style="opacity:1" fill="#000000" d="M 635.5,714.5 C 636.239,714.369 636.906,714.536 637.5,715C 636.176,719.43 635.009,723.93 634,728.5C 633.333,729.167 632.667,729.833 632,730.5C 627.205,729.629 622.538,730.963 618,734.5C 617.923,729.652 619.756,725.652 623.5,722.5C 624.62,723.833 625.953,724.333 627.5,724C 630.293,720.895 632.96,717.728 635.5,714.5 Z"/></g>
<g><path style="opacity:1" fill="#fefefe" d="M 547.5,758.5 C 552.361,758.063 557.028,758.563 561.5,760C 560.975,760.692 560.308,761.192 559.5,761.5C 553.705,760.433 547.871,760.433 542,761.5C 540.167,761.167 538.333,760.833 536.5,760.5C 540.313,759.833 543.979,759.166 547.5,758.5 Z"/></g>
<g><path style="opacity:1" fill="#000000" d="M 461.5,870.5 C 473.752,869.964 485.419,872.297 496.5,877.5C 503.988,881.844 508.488,888.177 510,896.5C 494.271,885.954 478.437,885.454 462.5,895C 453.002,906.488 449.502,919.654 452,934.5C 455.191,945.01 461.358,953.177 470.5,959C 478.874,962.402 487.207,965.902 495.5,969.5C 496.51,993.271 495.01,1016.94 491,1040.5C 489.416,1045.42 486.082,1048.09 481,1048.5C 477.237,1048.13 473.737,1046.97 470.5,1045C 458.236,1034.74 450.069,1021.91 446,1006.5C 438.887,969.384 436.887,932.051 440,894.5C 442.537,882.14 449.704,874.14 461.5,870.5 Z"/></g>
<g><path style="opacity:1" fill="#fefefe" d="M 486.5,892.5 C 489.392,892.721 492.059,893.554 494.5,895C 481.905,893.717 472.072,898.217 465,908.5C 464.667,911.167 464.333,913.833 464,916.5C 462.916,915.335 462.083,914.002 461.5,912.5C 466.278,901.388 474.612,894.721 486.5,892.5 Z"/></g>
<g><path style="opacity:1" fill="#fdfdfd" d="M 511.5,906.5 C 512.239,906.369 512.906,906.536 513.5,907C 505.663,914.173 499.33,922.506 494.5,932C 491.828,933.557 488.995,934.724 486,935.5C 480.005,933.947 474.338,931.613 469,928.5C 468.312,927.668 468.479,927.002 469.5,926.5C 474.484,929.242 479.65,931.575 485,933.5C 488.384,933.024 491.384,931.69 494,929.5C 497.948,920.21 503.781,912.543 511.5,906.5 Z"/></g>
<g><path style="opacity:1" fill="#000000" d="M 419.5,909.5 C 423.273,909.263 426.94,909.763 430.5,911C 433.057,911.685 434.891,913.185 436,915.5C 435.705,948.886 439.039,981.886 446,1014.5C 451.674,1027.52 460.008,1038.52 471,1047.5C 472.733,1055.17 471.233,1062 466.5,1068C 460.617,1071.45 454.95,1071.11 449.5,1067C 442.958,1062.13 437.458,1056.29 433,1049.5C 422.584,1032.33 411.917,1015.33 401,998.5C 392.863,981.953 388.363,964.62 387.5,946.5C 388.45,937.437 392.45,929.937 399.5,924C 403.833,920.333 408.167,916.667 412.5,913C 414.925,911.787 417.259,910.621 419.5,909.5 Z"/></g>
<g><path style="opacity:1" fill="#000000" d="M 377.5,966.5 C 380.959,966.62 384.126,966.954 387,967.5C 390.33,976.822 393.663,986.156 397,995.5C 409.444,1015.4 421.611,1035.4 433.5,1055.5C 431.333,1059.17 429.167,1062.83 427,1066.5C 426.333,1068.5 426.333,1070.5 427,1072.5C 429.971,1073.5 432.971,1074.5 436,1075.5C 436.5,1075.17 437,1074.83 437.5,1074.5C 434.85,1072.51 431.85,1071.51 428.5,1071.5C 429.073,1066.25 431.073,1061.58 434.5,1057.5C 435.002,1056.48 435.668,1056.31 436.5,1057C 440.027,1061.19 443.86,1065.03 448,1068.5C 446.527,1077.27 441.194,1081.61 432,1081.5C 426.489,1081.22 421.322,1079.72 416.5,1077C 405.298,1070 394.798,1062.16 385,1053.5C 375.386,1039.55 365.386,1025.89 355,1012.5C 352.813,1005.71 353.146,999.04 356,992.5C 360.614,981.534 367.781,972.867 377.5,966.5 Z"/></g>
<g><path style="opacity:1" fill="#fdfdfd" d="M 473.5,1021.5 C 490.821,1022 490.821,1022.84 473.5,1024C 470.333,1025.83 467.833,1028.33 466,1031.5C 465.333,1030.17 465.333,1028.83 466,1027.5C 468.478,1025.36 470.978,1023.36 473.5,1021.5 Z"/></g>
<g><path style="opacity:1" fill="#fefefe" d="M 460.5,1042.5 C 462.233,1043.01 462.566,1043.84 461.5,1045C 454.287,1046.54 449.12,1050.71 446,1057.5C 445.5,1057 445,1056.5 444.5,1056C 447.887,1048.91 453.221,1044.41 460.5,1042.5 Z"/></g>
<g><path style="opacity:1" fill="#fefefe" d="M 496.5,1042.5 C 498.225,1042.84 498.725,1043.84 498,1045.5C 490.365,1058.1 484.365,1071.44 480,1085.5C 472.703,1109.77 476.37,1132.11 491,1152.5C 491.667,1153.5 491.667,1154.5 491,1155.5C 480.626,1143.25 475.126,1129.08 474.5,1113C 475.059,1102.36 476.559,1091.86 479,1081.5C 484.297,1068.24 490.13,1055.24 496.5,1042.5 Z"/></g>
</svg>
